<svg aria-hidden="true" style="width:0;height:0;position:absolute;overflow:hidden" xmlns="http://www.w3.org/2000/svg"><defs><symbol id="icon-logo" viewBox="0 0 41 32"><path fill="#28a745" style="fill:var(--color1,#28a745)" d="M38.196.196C34.335.417 26.664 1.215 21.928 4.12c-.328.2-.513.557-.513.929v25.676c0 .815.89 1.331 1.64.952 4.872-2.457 11.921-3.128 15.405-3.31 1.19-.062 2.115-1.018 2.115-2.164V2.364c0-1.25-1.081-2.24-2.379-2.168zM18.649 4.121C13.913 1.215 6.24.417 2.381.197c-1.3-.073-2.38.917-2.38 2.167v23.84c0 1.146.925 2.101 2.115 2.164 3.486.183 10.537.854 15.412 3.314.747.377 1.634-.137 1.634-.951V5.03c0-.383-.203-.72-.507-.907l-.005-.003z"/></symbol><symbol id="icon-facebook" viewBox="0 0 32 32"><path d="M31.5 16.343c0-8.563-6.938-15.5-15.5-15.5S.5 7.781.5 16.343c0 7.75 5.625 14.188 13.063 15.312V20.843H9.625v-4.5h3.938v-3.375c0-3.875 2.313-6.063 5.812-6.063 1.75 0 3.5.313 3.5.313v3.813h-1.937c-1.938 0-2.562 1.187-2.562 2.438v2.875h4.313l-.688 4.5h-3.625v10.812c7.437-1.125 13.125-7.562 13.125-15.312z"/></symbol><symbol id="icon-linkedin" viewBox="0 0 32 32"><path d="M31.992 32v-.001H32V20.263c0-5.741-1.236-10.164-7.948-10.164-3.227 0-5.392 1.771-6.276 3.449h-.093v-2.913h-6.364v21.364h6.627V21.42c0-2.785.528-5.479 3.977-5.479 3.399 0 3.449 3.179 3.449 5.657v10.401h6.62zM.528 10.636h6.635V32H.528V10.636zM3.843 0C1.722 0 0 1.721 0 3.843s1.721 3.879 3.843 3.879c2.121 0 3.843-1.757 3.843-3.879A3.846 3.846 0 0 0 3.843 0z"/></symbol><symbol id="icon-twitter" viewBox="0 0 32 32"><path d="M32 6.078c-1.19.522-2.458.868-3.78 1.036a6.523 6.523 0 0 0 2.886-3.626 13.11 13.11 0 0 1-4.16 1.588A6.574 6.574 0 0 0 22.154 3c-3.632 0-6.556 2.948-6.556 6.562 0 .52.044 1.02.152 1.496-5.454-.266-10.28-2.88-13.522-6.862a6.605 6.605 0 0 0-.898 3.316 6.57 6.57 0 0 0 2.914 5.452 6.479 6.479 0 0 1-2.964-.808v.072c0 3.188 2.274 5.836 5.256 6.446a6.548 6.548 0 0 1-1.72.216 5.8 5.8 0 0 1-1.242-.112c.85 2.598 3.262 4.508 6.13 4.57a13.182 13.182 0 0 1-8.134 2.798c-.538 0-1.054-.024-1.57-.09A18.469 18.469 0 0 0 10.064 29c12.072 0 18.672-10 18.672-18.668 0-.29-.01-.57-.024-.848A13.087 13.087 0 0 0 32 6.078z"/></symbol><symbol id="icon-youtube" viewBox="0 0 45 32"><path d="M43.664 5.831c-.486-1.944-2.025-3.484-3.889-3.97C36.291.889 22.518.889 22.518.889s-13.854 0-17.338.972c-1.863.486-3.403 2.025-3.889 3.97C.319 9.234.319 16.526.319 16.526s0 7.211.972 10.694c.486 1.944 2.025 3.403 3.889 3.889C8.664 32 22.518 32 22.518 32s13.773 0 17.257-.891c1.863-.486 3.403-1.944 3.889-3.889.972-3.484.972-10.694.972-10.694s0-7.292-.972-10.694zM17.982 23.088V9.963l11.505 6.563-11.505 6.563z"/></symbol><symbol id="icon-group" viewBox="0 0 32 32"><path fill="#fff" style="fill:var(--color1,#fff)" d="M22 6a6 6 0 1 0-12 0 6 6 0 0 0 12 0zm-7.401 9.068c-3.708-2.268-9.714-2.894-12.736-3.066C.845 11.944 0 12.719 0 13.695V27.62c0 .896.724 1.643 1.655 1.691 2.729.143 8.251.667 12.066 2.589.585.295 1.28-.107 1.28-.741v-15.38c0-.3-.159-.564-.398-.71l-.004-.002zm15.539-3.065c-3.022.172-9.029.795-12.736 3.066a.85.85 0 0 0-.401.721v15.369c0 .637.697 1.04 1.284.744 3.815-1.92 9.333-2.445 12.061-2.587.931-.048 1.655-.795 1.655-1.691V13.699c0-.976-.847-1.751-1.862-1.693z"/></symbol><symbol id="icon-pencil" viewBox="0 0 32 32"><path fill="#fff" style="fill:var(--color1,#fff)" d="m31.119 8.881-2.881 2.881a.749.749 0 0 1-1.062 0l-6.938-6.938a.749.749 0 0 1 0-1.062L23.119.881c.544-.542 1.294-.877 2.122-.877s1.578.335 2.122.877l3.756 3.756c.544.542.881 1.293.881 2.122s-.337 1.58-.881 2.122zM17.763 6.237 1.351 22.649.025 30.244a1.501 1.501 0 0 0 1.737 1.737l7.594-1.331 16.412-16.411a.75.75 0 0 0 0-1.064l-6.937-6.938a.758.758 0 0 0-1.07 0zM7.756 21.243a.87.87 0 0 1 0-1.237l9.626-9.626a.87.87 0 0 1 1.237 0 .87.87 0 0 1 0 1.238l-9.625 9.625a.87.87 0 0 1-1.238 0zM5.5 26.501h2.999v2.267l-4.03.707-1.944-1.944.706-4.031H5.5v3z"/></symbol><symbol id="icon-university" viewBox="0 0 32 32"><path fill="#fff" style="fill:var(--color1,#fff)" d="M31 8v1a.5.5 0 0 1-.5.5h-1.499v.75a.75.75 0 0 1-.75.75H3.75a.75.75 0 0 1-.75-.75V9.5H1.5A.5.5 0 0 1 1 9V8c0-.207.126-.385.306-.46l.003-.001 14.5-5.5a.49.49 0 0 1 .385.001l-.003-.001 14.501 5.5A.5.5 0 0 1 31 8v.001zm-1.5 19H2.499C1.671 27 1 27.671 1 28.499V29.5a.5.5 0 0 0 .5.5h28.999a.5.5 0 0 0 .5-.5v-1c0-.828-.671-1.499-1.499-1.499zM6 12v12H3.749a.75.75 0 0 0-.75.75V26h26v-1.25a.75.75 0 0 0-.75-.75h-2.251V12h-4v12h-4V12h-4v12H9.999V12H5.998z"/></symbol></defs></svg>